<mxfile host="app.diagrams.net" agent="Mozilla/5.0 (X11; Linux x86_64; rv:131.0) Gecko/20100101 Firefox/131.0" version="27.1.3">
  <diagram name="Page-1" id="AUWQjRd2xnVY32tLUx8U">
    <mxGraphModel dx="1360" dy="1865" grid="1" gridSize="10" guides="1" tooltips="1" connect="1" arrows="1" fold="1" page="1" pageScale="1" pageWidth="850" pageHeight="1100" math="0" shadow="0">
      <root>
        <mxCell id="0" />
        <mxCell id="1" parent="0" />
        <mxCell id="Dba4MYdc-YnX5krXkBvv-12" style="edgeStyle=orthogonalEdgeStyle;rounded=0;orthogonalLoop=1;jettySize=auto;html=1;exitX=1;exitY=0.5;exitDx=0;exitDy=0;entryX=0;entryY=0.5;entryDx=0;entryDy=0;" edge="1" parent="1" source="Dba4MYdc-YnX5krXkBvv-1" target="Dba4MYdc-YnX5krXkBvv-2">
          <mxGeometry relative="1" as="geometry" />
        </mxCell>
        <mxCell id="Dba4MYdc-YnX5krXkBvv-1" value="&lt;div&gt;robot state&lt;/div&gt;" style="rounded=0;whiteSpace=wrap;html=1;" vertex="1" parent="1">
          <mxGeometry x="40" y="80" width="120" height="60" as="geometry" />
        </mxCell>
        <mxCell id="Dba4MYdc-YnX5krXkBvv-13" style="edgeStyle=orthogonalEdgeStyle;rounded=0;orthogonalLoop=1;jettySize=auto;html=1;exitX=0.5;exitY=1;exitDx=0;exitDy=0;entryX=0.5;entryY=0;entryDx=0;entryDy=0;" edge="1" parent="1" source="Dba4MYdc-YnX5krXkBvv-2" target="Dba4MYdc-YnX5krXkBvv-4">
          <mxGeometry relative="1" as="geometry" />
        </mxCell>
        <mxCell id="Dba4MYdc-YnX5krXkBvv-19" value="Desired EE acceleration, M/s^2 and R/s^2" style="edgeLabel;html=1;align=center;verticalAlign=middle;resizable=0;points=[];" vertex="1" connectable="0" parent="Dba4MYdc-YnX5krXkBvv-13">
          <mxGeometry x="0.2" y="1" relative="1" as="geometry">
            <mxPoint as="offset" />
          </mxGeometry>
        </mxCell>
        <mxCell id="Dba4MYdc-YnX5krXkBvv-2" value="spring/damper control" style="rounded=0;whiteSpace=wrap;html=1;" vertex="1" parent="1">
          <mxGeometry x="320" y="80" width="140" height="60" as="geometry" />
        </mxCell>
        <mxCell id="Dba4MYdc-YnX5krXkBvv-3" value="&lt;div&gt;External force&lt;/div&gt;" style="rounded=0;whiteSpace=wrap;html=1;" vertex="1" parent="1">
          <mxGeometry x="320" y="-20" width="120" height="60" as="geometry" />
        </mxCell>
        <mxCell id="Dba4MYdc-YnX5krXkBvv-14" style="edgeStyle=orthogonalEdgeStyle;rounded=0;orthogonalLoop=1;jettySize=auto;html=1;exitX=0.5;exitY=1;exitDx=0;exitDy=0;entryX=0.5;entryY=0;entryDx=0;entryDy=0;" edge="1" parent="1" source="Dba4MYdc-YnX5krXkBvv-4" target="Dba4MYdc-YnX5krXkBvv-6">
          <mxGeometry relative="1" as="geometry" />
        </mxCell>
        <mxCell id="Dba4MYdc-YnX5krXkBvv-20" value="Using weighted pseudo inverse, R/s^2" style="edgeLabel;html=1;align=center;verticalAlign=middle;resizable=0;points=[];" vertex="1" connectable="0" parent="Dba4MYdc-YnX5krXkBvv-14">
          <mxGeometry x="-0.1333" relative="1" as="geometry">
            <mxPoint as="offset" />
          </mxGeometry>
        </mxCell>
        <mxCell id="Dba4MYdc-YnX5krXkBvv-4" value="desired joint accelerations" style="rounded=0;whiteSpace=wrap;html=1;" vertex="1" parent="1">
          <mxGeometry x="330" y="190" width="120" height="60" as="geometry" />
        </mxCell>
        <mxCell id="Dba4MYdc-YnX5krXkBvv-15" style="edgeStyle=orthogonalEdgeStyle;rounded=0;orthogonalLoop=1;jettySize=auto;html=1;exitX=0.5;exitY=1;exitDx=0;exitDy=0;entryX=0.5;entryY=0;entryDx=0;entryDy=0;" edge="1" parent="1" source="Dba4MYdc-YnX5krXkBvv-6" target="Dba4MYdc-YnX5krXkBvv-7">
          <mxGeometry relative="1" as="geometry" />
        </mxCell>
        <mxCell id="Dba4MYdc-YnX5krXkBvv-21" value="Using robot Mass matrix, N/M" style="edgeLabel;html=1;align=center;verticalAlign=middle;resizable=0;points=[];" vertex="1" connectable="0" parent="Dba4MYdc-YnX5krXkBvv-15">
          <mxGeometry x="-0.2" y="1" relative="1" as="geometry">
            <mxPoint as="offset" />
          </mxGeometry>
        </mxCell>
        <mxCell id="Dba4MYdc-YnX5krXkBvv-6" value="desired joint torques" style="rounded=0;whiteSpace=wrap;html=1;" vertex="1" parent="1">
          <mxGeometry x="330" y="320" width="120" height="60" as="geometry" />
        </mxCell>
        <mxCell id="Dba4MYdc-YnX5krXkBvv-16" style="edgeStyle=orthogonalEdgeStyle;rounded=0;orthogonalLoop=1;jettySize=auto;html=1;exitX=0;exitY=0.5;exitDx=0;exitDy=0;entryX=1;entryY=0.5;entryDx=0;entryDy=0;" edge="1" parent="1" source="Dba4MYdc-YnX5krXkBvv-7" target="Dba4MYdc-YnX5krXkBvv-8">
          <mxGeometry relative="1" as="geometry" />
        </mxCell>
        <mxCell id="Dba4MYdc-YnX5krXkBvv-22" value="N/M" style="edgeLabel;html=1;align=center;verticalAlign=middle;resizable=0;points=[];" vertex="1" connectable="0" parent="Dba4MYdc-YnX5krXkBvv-16">
          <mxGeometry x="-0.2" relative="1" as="geometry">
            <mxPoint as="offset" />
          </mxGeometry>
        </mxCell>
        <mxCell id="Dba4MYdc-YnX5krXkBvv-7" value="clamp + corriolis" style="rounded=0;whiteSpace=wrap;html=1;" vertex="1" parent="1">
          <mxGeometry x="330" y="430" width="120" height="60" as="geometry" />
        </mxCell>
        <mxCell id="Dba4MYdc-YnX5krXkBvv-17" style="edgeStyle=orthogonalEdgeStyle;rounded=0;orthogonalLoop=1;jettySize=auto;html=1;exitX=0.5;exitY=0;exitDx=0;exitDy=0;entryX=0.5;entryY=1;entryDx=0;entryDy=0;" edge="1" parent="1" source="Dba4MYdc-YnX5krXkBvv-8" target="Dba4MYdc-YnX5krXkBvv-1">
          <mxGeometry relative="1" as="geometry" />
        </mxCell>
        <mxCell id="Dba4MYdc-YnX5krXkBvv-26" style="edgeStyle=orthogonalEdgeStyle;rounded=0;orthogonalLoop=1;jettySize=auto;html=1;exitX=0.5;exitY=1;exitDx=0;exitDy=0;entryX=0.5;entryY=0;entryDx=0;entryDy=0;" edge="1" parent="1" source="Dba4MYdc-YnX5krXkBvv-8" target="Dba4MYdc-YnX5krXkBvv-23">
          <mxGeometry relative="1" as="geometry" />
        </mxCell>
        <mxCell id="Dba4MYdc-YnX5krXkBvv-28" style="edgeStyle=orthogonalEdgeStyle;rounded=0;orthogonalLoop=1;jettySize=auto;html=1;exitX=0.5;exitY=1;exitDx=0;exitDy=0;" edge="1" parent="1" source="Dba4MYdc-YnX5krXkBvv-8" target="Dba4MYdc-YnX5krXkBvv-27">
          <mxGeometry relative="1" as="geometry" />
        </mxCell>
        <mxCell id="Dba4MYdc-YnX5krXkBvv-8" value="&lt;div&gt;robot&lt;/div&gt;" style="rounded=0;whiteSpace=wrap;html=1;" vertex="1" parent="1">
          <mxGeometry x="40" y="430" width="120" height="60" as="geometry" />
        </mxCell>
        <mxCell id="Dba4MYdc-YnX5krXkBvv-11" style="edgeStyle=orthogonalEdgeStyle;rounded=0;orthogonalLoop=1;jettySize=auto;html=1;exitX=0.5;exitY=1;exitDx=0;exitDy=0;entryX=0.429;entryY=-0.017;entryDx=0;entryDy=0;entryPerimeter=0;" edge="1" parent="1" source="Dba4MYdc-YnX5krXkBvv-3" target="Dba4MYdc-YnX5krXkBvv-2">
          <mxGeometry relative="1" as="geometry" />
        </mxCell>
        <mxCell id="Dba4MYdc-YnX5krXkBvv-18" value="N" style="edgeLabel;html=1;align=center;verticalAlign=middle;resizable=0;points=[];" vertex="1" connectable="0" parent="Dba4MYdc-YnX5krXkBvv-11">
          <mxGeometry x="-0.3845" y="-2" relative="1" as="geometry">
            <mxPoint as="offset" />
          </mxGeometry>
        </mxCell>
        <mxCell id="Dba4MYdc-YnX5krXkBvv-23" value="Data Dump" style="rounded=0;whiteSpace=wrap;html=1;" vertex="1" parent="1">
          <mxGeometry x="210" y="560" width="120" height="60" as="geometry" />
        </mxCell>
        <mxCell id="Dba4MYdc-YnX5krXkBvv-27" value="ROS2 topic" style="rounded=0;whiteSpace=wrap;html=1;" vertex="1" parent="1">
          <mxGeometry x="40" y="560" width="120" height="60" as="geometry" />
        </mxCell>
      </root>
    </mxGraphModel>
  </diagram>
</mxfile>
